<?xml version="1.0" encoding="UTF-8" standalone="no"?>
<!-- Generator: Gravit.io -->
<svg xmlns="http://www.w3.org/2000/svg" xmlns:xlink="http://www.w3.org/1999/xlink" style="isolation:isolate" viewBox="0 0 2267.717 1700.787" width="2267.717pt" height="1700.787pt"><defs><clipPath id="_clipPath_dmBZbSbfCyWhgHjNsUAljnklbbFVqQkS"><rect width="2267.717" height="1700.787"/></clipPath></defs><g clip-path="url(#_clipPath_dmBZbSbfCyWhgHjNsUAljnklbbFVqQkS)"><rect width="2267.717" height="1700.787" style="fill:rgb(18,18,18)"/><g><g><g><path d=" M 1521.389 922.617 C 1467.261 893.585 1408.212 813.869 1366.386 715.455 C 1343.751 662.311 1344.243 655.422 1368.847 641.644 C 1379.672 635.247 1388.529 628.85 1388.529 626.39 C 1388.529 624.422 1390.498 622.454 1392.958 622.454 C 1395.911 622.454 1399.355 632.787 1401.323 645.581 C 1412.641 724.804 1461.848 829.123 1522.865 904.41 C 1547.961 934.919 1547.961 936.887 1521.389 922.617 Z " fill="rgb(183,183,183)"/><path d=" M 1857.965 916.712 C 1924.887 833.552 1970.65 742.519 1981.475 670.184 C 1983.936 655.422 1988.364 649.025 2004.603 638.2 C 2023.793 625.406 2028.714 624.914 2092.191 623.438 L 2159.113 621.961 L 2167.478 639.676 C 2182.732 672.153 2176.335 715.455 2149.763 750.884 C 2144.351 758.757 2136.97 765.154 2133.525 765.154 C 2130.081 765.154 2126.636 768.107 2125.652 771.551 C 2124.176 775.488 2104.001 777.948 2054.794 778.932 L 1986.396 780.9 L 1998.206 768.107 C 2009.523 756.297 2012.968 755.313 2056.27 755.313 C 2096.62 755.313 2103.509 753.837 2114.826 744.487 C 2140.906 722.344 2149.763 677.565 2132.049 657.883 C 2124.176 648.533 2117.779 647.057 2084.318 647.057 L 2044.952 647.057 L 2018.873 703.153 C 1983.936 778.932 1945.062 837.489 1895.855 889.648 C 1855.997 931.474 1831.886 948.697 1857.965 916.712 Z " fill="rgb(183,183,183)"/><path d=" M 1597.168 894.569 C 1650.311 828.631 1692.137 743.995 1704.439 678.058 L 1710.836 645.581 L 1741.837 631.311 C 1759.059 623.93 1773.821 617.533 1774.805 617.533 C 1777.758 617.533 1768.408 644.597 1751.186 685.439 C 1731.011 732.185 1698.042 790.25 1669.01 829.123 C 1646.375 859.632 1580.929 927.538 1574.532 927.538 C 1572.072 927.538 1582.406 912.775 1597.168 894.569 Z " fill="rgb(183,183,183)"/><path d=" M 1725.106 911.791 C 1793.504 826.171 1829.917 753.837 1849.6 664.772 C 1851.568 654.438 1856.981 643.613 1860.918 641.644 C 1876.172 633.771 1913.077 617.533 1916.03 617.533 C 1926.363 617.533 1866.823 744.979 1829.917 801.075 C 1803.838 840.933 1726.582 927.538 1717.233 927.538 C 1714.281 927.538 1717.725 920.157 1725.106 911.791 Z " fill="rgb(183,183,183)"/></g><text transform="matrix(4.921,0,0,4.921,85.626,891.348)" style="font-family:'Gugi';font-weight:400;font-size:60px;font-style:normal;fill:#29a4d9;stroke:none;">YAZILIM</text></g><text transform="matrix(4.921,0,0,4.921,586.68,1059.228)" style="font-family:'Roboto';font-weight:400;font-size:20px;font-style:normal;fill:#b7b7b7;stroke:none;">do the right, not the easy</text></g></g></svg>