<?xml version="1.0" encoding="UTF-8" standalone="no"?>
<!-- Generator: Gravit.io -->
<svg xmlns="http://www.w3.org/2000/svg" xmlns:xlink="http://www.w3.org/1999/xlink" style="isolation:isolate" viewBox="0 0 2267.717 372.444" width="2267.717pt" height="372.444pt"><defs><clipPath id="_clipPath_lL3htKcWlDpdWm57BS95unjUbEnqEckl"><rect width="2267.717" height="372.444"/></clipPath></defs><g clip-path="url(#_clipPath_lL3htKcWlDpdWm57BS95unjUbEnqEckl)"><rect width="2267.717" height="372.444" style="fill:rgb(18,18,18)" fill-opacity="0"/><g filter="url(#atSWQ1PyiqzGYnsQ8OSE0qdBo3k4aXCh)"><g><g><path d=" M 1524.83 333.436 C 1470.702 304.404 1411.654 224.688 1369.827 126.274 C 1347.192 73.131 1347.684 66.242 1372.288 52.464 C 1383.113 46.067 1391.971 39.67 1391.971 37.209 C 1391.971 35.241 1393.939 33.273 1396.399 33.273 C 1399.352 33.273 1402.796 43.606 1404.765 56.4 C 1416.082 135.624 1465.29 239.943 1526.307 315.229 C 1551.402 345.738 1551.402 347.706 1524.83 333.436 Z " fill="rgb(183,183,183)"/><path d=" M 1861.409 327.531 C 1928.33 244.371 1974.093 153.338 1984.919 81.004 C 1987.379 66.242 1991.808 59.845 2008.046 49.019 C 2027.237 36.225 2032.158 35.733 2095.635 34.257 L 2162.557 32.781 L 2170.923 50.495 C 2186.177 82.972 2179.78 126.274 2153.208 161.703 C 2147.795 169.576 2140.414 175.973 2136.97 175.973 C 2133.525 175.973 2130.081 178.926 2129.096 182.37 C 2127.62 186.307 2107.445 188.767 2058.238 189.751 L 1989.84 191.72 L 2001.649 178.926 C 2012.967 167.116 2016.412 166.132 2059.714 166.132 C 2100.064 166.132 2106.953 164.656 2118.271 155.306 C 2144.351 133.163 2153.208 88.385 2135.493 68.702 C 2127.62 59.353 2121.223 57.876 2087.762 57.876 L 2048.396 57.876 L 2022.316 113.972 C 1987.379 189.751 1948.505 248.308 1899.298 300.467 C 1859.44 342.293 1835.329 359.516 1861.409 327.531 Z " fill="rgb(183,183,183)"/><path d=" M 1600.61 305.388 C 1653.754 239.451 1695.58 154.814 1707.882 88.877 L 1714.279 56.4 L 1745.279 42.13 C 1762.502 34.749 1777.264 28.352 1778.248 28.352 C 1781.201 28.352 1771.851 55.416 1754.629 96.258 C 1734.454 143.005 1701.485 201.069 1672.452 239.943 C 1649.817 270.451 1584.371 338.357 1577.974 338.357 C 1575.514 338.357 1585.847 323.595 1600.61 305.388 Z " fill="rgb(183,183,183)"/><path d=" M 1728.549 322.611 C 1796.947 236.99 1833.36 164.656 1853.043 75.591 C 1855.012 65.257 1860.424 54.432 1864.361 52.464 C 1879.615 44.59 1916.521 28.352 1919.473 28.352 C 1929.807 28.352 1870.266 155.798 1833.36 211.895 C 1807.28 251.752 1730.025 338.357 1720.676 338.357 C 1717.723 338.357 1721.168 330.976 1728.549 322.611 Z " fill="rgb(183,183,183)"/></g><path d=" M 198.894 212.709 L 198.894 290.358 L 198.894 290.358 Q 198.894 304.53 181.475 304.53 L 181.475 304.53 L 181.475 304.53 Q 164.056 304.53 164.056 290.358 L 164.056 290.358 L 164.056 211.823 L 97.921 86.05 L 97.921 86.05 Q 96.15 82.212 96.15 78.078 L 96.15 78.078 L 96.15 78.078 Q 96.15 69.516 106.188 65.383 L 106.188 65.383 L 105.893 65.383 L 105.893 65.383 Q 112.388 63.021 116.226 63.021 L 116.226 63.021 L 116.226 63.021 Q 123.903 63.021 128.036 70.697 L 128.036 70.697 L 181.77 171.67 L 181.77 171.67 Q 187.675 160.451 194.466 147.608 L 194.466 147.608 L 194.466 147.608 Q 201.256 134.765 208.194 121.479 L 208.194 121.479 L 208.194 121.479 Q 215.133 108.193 221.923 95.202 L 221.923 95.202 L 221.923 95.202 Q 228.714 82.212 234.914 70.697 L 234.914 70.697 L 234.914 70.697 Q 237.276 67.154 240.081 65.088 L 240.081 65.088 L 240.081 65.088 Q 242.885 63.021 247.019 63.021 L 247.019 63.021 L 247.019 63.021 Q 251.152 63.021 256.762 65.383 L 256.762 65.383 L 256.467 65.383 L 256.467 65.383 Q 266.8 69.812 266.8 78.374 L 266.8 78.374 L 266.8 78.374 Q 266.8 80.145 266.505 82.064 L 266.505 82.064 L 266.505 82.064 Q 266.21 83.983 265.029 86.05 L 265.029 86.05 L 265.029 86.05 Q 262.371 91.364 258.386 99.041 L 258.386 99.041 L 258.386 99.041 Q 254.4 106.717 247.166 120.446 L 247.166 120.446 L 247.166 120.446 Q 239.933 134.175 228.418 156.17 L 228.418 156.17 L 228.418 156.17 Q 216.904 178.166 198.894 212.709 L 198.894 212.709 L 198.894 212.709 Z  M 438.926 295.082 L 373.973 96.679 L 309.315 295.082 L 309.315 294.787 L 309.315 294.787 Q 307.544 299.215 304.443 302.02 L 304.443 302.02 L 304.443 302.02 Q 301.343 304.825 296.915 304.825 L 296.915 304.825 L 296.915 304.825 Q 294.553 304.825 292.339 304.382 L 292.339 304.382 L 292.339 304.382 Q 290.124 303.939 287.762 303.349 L 287.762 303.349 L 288.057 303.349 L 288.057 303.349 Q 271.229 298.034 275.657 284.453 L 275.657 284.453 L 342.973 79.85 L 342.973 79.85 Q 344.449 75.126 348.139 71.878 L 348.139 71.878 L 348.139 71.878 Q 351.83 68.631 356.849 68.04 L 356.849 68.04 L 356.849 68.04 Q 361.868 67.154 366.592 66.712 L 366.592 66.712 L 366.592 66.712 Q 371.316 66.269 373.973 66.269 L 373.973 66.269 L 373.973 66.269 Q 376.63 66.269 381.354 66.712 L 381.354 66.712 L 381.354 66.712 Q 386.078 67.154 391.097 67.745 L 391.097 67.745 L 391.097 67.745 Q 395.231 68.335 399.216 72.174 L 399.216 72.174 L 399.216 72.174 Q 403.202 76.012 405.269 79.85 L 405.269 79.85 L 405.269 79.85 Q 421.802 130.632 438.779 182.151 L 438.779 182.151 L 438.779 182.151 Q 455.755 233.671 472.289 284.453 L 472.289 284.453 L 472.289 284.453 Q 476.422 298.034 459.889 303.349 L 459.889 303.349 L 459.889 303.349 Q 457.527 303.939 455.608 304.382 L 455.608 304.382 L 455.608 304.382 Q 453.689 304.825 451.327 304.825 L 451.327 304.825 L 451.327 304.825 Q 447.193 304.825 443.798 302.02 L 443.798 302.02 L 443.798 302.02 Q 440.403 299.215 438.926 294.787 L 438.926 294.787 L 438.926 295.082 L 438.926 295.082 Z  M 396.116 231.309 L 396.116 231.309 L 396.116 231.309 Q 396.116 240.757 389.473 247.4 L 389.473 247.4 L 389.473 247.4 Q 382.83 254.043 373.383 254.043 L 373.383 254.043 L 373.383 254.043 Q 363.935 254.043 357.44 247.4 L 357.44 247.4 L 357.44 247.4 Q 350.944 240.757 350.944 231.309 L 350.944 231.309 L 350.944 231.309 Q 350.944 221.862 357.44 215.219 L 357.44 215.219 L 357.44 215.219 Q 363.935 208.576 373.383 208.576 L 373.383 208.576 L 373.383 208.576 Q 382.83 208.576 389.473 215.219 L 389.473 215.219 L 389.473 215.219 Q 396.116 221.862 396.116 231.309 Z  M 600.129 97.564 L 495.613 97.564 L 495.613 97.564 Q 485.28 97.564 484.689 82.507 L 484.689 82.507 L 484.689 82.507 Q 484.689 67.745 495.613 67.745 L 495.613 67.745 L 625.225 67.745 L 625.225 67.745 Q 634.968 67.745 640.282 70.845 L 640.282 70.845 L 640.282 70.845 Q 645.596 73.945 646.187 79.259 L 646.187 79.259 L 646.187 79.259 Q 646.482 84.279 646.039 88.855 L 646.039 88.855 L 646.039 88.855 Q 645.596 93.431 643.825 95.793 L 643.825 95.793 L 527.499 272.643 L 634.377 272.643 L 634.377 272.643 Q 645.301 272.643 645.301 287.11 L 645.301 287.11 L 645.301 287.11 Q 645.892 302.463 634.377 302.463 L 634.377 302.463 L 502.108 302.463 L 502.108 302.463 Q 482.622 302.463 481.146 290.653 L 481.146 290.653 L 481.146 290.653 Q 480.556 285.634 481.146 281.353 L 481.146 281.353 L 481.146 281.353 Q 481.737 277.072 483.508 274.71 L 483.508 274.71 L 483.508 274.71 Q 488.823 266.443 494.58 257.586 L 494.58 257.586 L 494.58 257.586 Q 500.337 248.729 507.423 238.1 L 507.423 238.1 L 507.423 238.1 Q 514.509 227.471 523.218 214.185 L 523.218 214.185 L 523.218 214.185 Q 531.928 200.899 543.147 183.923 L 543.147 183.923 L 543.147 183.923 Q 554.366 166.946 568.39 145.689 L 568.39 145.689 L 568.39 145.689 Q 582.414 124.432 600.129 97.564 L 600.129 97.564 L 600.129 97.564 Z  M 712.616 80.44 L 712.616 289.767 L 712.616 289.767 Q 712.616 303.939 694.902 303.939 L 694.902 303.939 L 694.902 303.939 Q 677.483 303.939 677.483 289.767 L 677.483 289.767 L 677.483 80.44 L 677.483 80.44 Q 677.483 66.269 694.902 66.269 L 694.902 66.269 L 694.902 66.269 Q 712.616 66.269 712.616 80.44 L 712.616 80.44 L 712.616 80.44 Z  M 893.305 302.463 L 778.456 302.463 L 778.456 302.463 Q 767.532 302.463 763.693 296.853 L 763.693 296.853 L 763.693 296.853 Q 759.855 291.244 759.855 284.453 L 759.855 284.453 L 759.855 80.44 L 759.855 80.44 Q 759.855 66.269 776.979 66.269 L 776.979 66.269 L 776.979 66.269 Q 794.694 66.269 794.694 80.44 L 794.694 80.44 L 794.694 272.643 L 893.305 272.643 L 893.305 272.643 Q 903.934 272.643 903.934 287.11 L 903.934 287.11 L 903.934 287.11 Q 904.524 302.463 893.305 302.463 L 893.305 302.463 L 893.305 302.463 Z  M 967.411 80.44 L 967.411 289.767 L 967.411 289.767 Q 967.411 303.939 949.696 303.939 L 949.696 303.939 L 949.696 303.939 Q 932.277 303.939 932.277 289.767 L 932.277 289.767 L 932.277 80.44 L 932.277 80.44 Q 932.277 66.269 949.696 66.269 L 949.696 66.269 L 949.696 66.269 Q 967.411 66.269 967.411 80.44 L 967.411 80.44 L 967.411 80.44 Z  M 1195.633 66.269 L 1195.633 66.269 L 1195.633 66.269 Q 1205.081 66.269 1216.3 70.697 L 1216.3 70.697 L 1216.3 70.697 Q 1226.634 74.831 1226.634 86.345 L 1226.634 86.345 L 1226.634 289.767 L 1226.634 289.767 Q 1226.634 303.939 1209.215 303.939 L 1209.215 303.939 L 1209.215 303.939 Q 1191.795 303.939 1191.795 289.767 L 1191.795 289.767 L 1191.795 138.013 L 1183.233 137.127 L 1171.424 175.508 L 1135.994 293.606 L 1135.994 293.606 Q 1132.747 303.939 1120.051 303.644 L 1120.051 303.644 L 1120.051 303.644 Q 1114.442 303.349 1110.308 300.691 L 1110.308 300.691 L 1110.308 300.691 Q 1106.175 298.034 1104.699 293.015 L 1104.699 293.015 L 1083.441 224.224 L 1083.441 224.224 Q 1076.946 203.852 1070.451 182.742 L 1070.451 182.742 L 1070.451 182.742 Q 1063.955 161.632 1056.279 135.946 L 1056.279 135.946 L 1047.717 137.127 L 1047.717 289.767 L 1047.717 289.767 Q 1047.717 303.939 1030.298 303.939 L 1030.298 303.939 L 1030.298 303.939 Q 1012.878 303.939 1012.878 289.767 L 1012.878 289.767 L 1012.878 86.345 L 1012.878 86.345 Q 1012.878 75.126 1023.212 70.697 L 1023.212 70.697 L 1023.212 70.697 Q 1034.136 66.269 1044.174 66.564 L 1044.174 66.564 L 1044.174 66.564 Q 1048.603 66.564 1053.326 67.745 L 1053.326 67.745 L 1053.326 67.745 Q 1058.05 68.926 1062.184 71.14 L 1062.184 71.14 L 1062.184 71.14 Q 1066.317 73.355 1069.565 76.75 L 1069.565 76.75 L 1069.565 76.75 Q 1072.812 80.145 1074.584 84.574 L 1074.584 84.574 L 1120.937 242.529 L 1120.937 242.529 Q 1125.956 225.109 1131.566 204.738 L 1131.566 204.738 L 1131.566 204.738 Q 1137.175 184.366 1143.08 163.404 L 1143.08 163.404 L 1143.08 163.404 Q 1148.985 142.441 1154.742 121.922 L 1154.742 121.922 L 1154.742 121.922 Q 1160.5 101.403 1165.519 83.688 L 1165.519 83.688 L 1165.519 83.688 Q 1167.29 79.555 1170.538 76.307 L 1170.538 76.307 L 1170.538 76.307 Q 1173.785 73.059 1177.919 70.845 L 1177.919 70.845 L 1177.919 70.845 Q 1182.052 68.631 1186.629 67.45 L 1186.629 67.45 L 1186.629 67.45 Q 1191.205 66.269 1195.633 66.269 Z " fill="rgb(41,164,217)"/></g></g><defs><filter id="atSWQ1PyiqzGYnsQ8OSE0qdBo3k4aXCh" x="-200%" y="-200%" width="400%" height="400%" filterUnits="objectBoundingBox" color-interpolation-filters="sRGB"><feGaussianBlur xmlns="http://www.w3.org/2000/svg" in="SourceGraphic" stdDeviation="2.146804531419514"/><feOffset xmlns="http://www.w3.org/2000/svg" dx="0" dy="0" result="pf_100_offsetBlur"/><feFlood xmlns="http://www.w3.org/2000/svg" flood-color="#000000" flood-opacity="0.65"/><feComposite xmlns="http://www.w3.org/2000/svg" in2="pf_100_offsetBlur" operator="in" result="pf_100_dropShadow"/><feBlend xmlns="http://www.w3.org/2000/svg" in="SourceGraphic" in2="pf_100_dropShadow" mode="normal"/></filter></defs></g></svg>